<svg width="64" height="29" viewBox="0 0 64 29" fill="none" xmlns="http://www.w3.org/2000/svg">
<path d="M0.000326572 18.7139L0.218904 21.774C0.218904 25.5523 3.27901 28.6124 7.0573 28.6124C7.15098 28.6124 13.802 27.7381 13.802 27.7381C17.4554 27.6444 20.4062 24.6936 20.4843 21.0558L20.9527 16.9652C28.4 14.0769 35.5038 14.0613 42.6232 16.934L43.076 21.0402C43.1384 24.6936 46.1048 27.66 49.7582 27.7224C49.7582 27.7224 56.4093 28.5968 56.5029 28.5968C60.2812 28.5968 63.3413 25.5367 63.3413 21.9145L63.5755 18.5577C63.5755 14.9668 62.1392 11.5632 59.5162 8.94028C47.5881 -2.98788 15.9722 -2.97226 4.05965 8.94028C1.45231 11.5476 0.000326774 14.9668 0.0159393 18.6983L0.000326572 18.7139ZM56.378 12.0784C58.1579 13.8583 59.1415 16.1534 59.1259 18.4172L58.8917 21.774C58.8917 23.0542 57.8769 24.1315 56.5966 24.194C56.5966 24.194 49.9924 23.3353 49.8987 23.3353C48.6185 23.3353 47.4944 22.2111 47.4788 20.9153C47.4788 20.8216 46.8543 15.1698 46.8543 15.1698C46.7606 14.3891 46.2766 13.7178 45.5584 13.4055C36.6279 9.40866 27.3695 9.39305 18.0331 13.3899C17.3149 13.7022 16.7997 14.3735 16.706 15.1854C16.706 15.1854 16.0659 20.8528 16.0659 20.9153C16.0659 22.258 14.9886 23.3353 13.6459 23.3353C13.5522 23.3353 6.94801 24.194 6.94801 24.194C5.66776 24.1315 4.63732 23.0698 4.63732 21.6335L4.41874 18.5734C4.41874 16.169 5.38673 13.8583 7.16659 12.0785C18.0331 1.21196 47.026 2.7264 56.378 12.0784Z" fill="#FF4545"/>
</svg>
