<svg width="44" height="44" viewBox="0 0 44 44" fill="none" xmlns="http://www.w3.org/2000/svg">
<path d="M44 7.33333C44 3.289 40.711 0 36.6667 0C32.6223 0 29.3333 3.289 29.3333 7.33333C29.3333 7.45617 29.3645 7.57167 29.37 7.69267L13.541 12.639C12.2448 10.5618 9.95683 9.16667 7.33333 9.16667C3.289 9.16667 0 12.4557 0 16.5C0 20.5443 3.289 23.8333 7.33333 23.8333C8.80367 23.8333 10.1695 23.3878 11.319 22.6398L22.8873 33.2438C22.3392 34.2705 22 35.4237 22 36.6667C22 40.711 25.289 44 29.3333 44C33.3777 44 36.6667 40.711 36.6667 36.6667C36.6667 33.8928 35.101 31.504 32.824 30.2573L36.7235 14.6612C40.7403 14.63 44 11.3575 44 7.33333ZM30.459 11.1943C31.1282 12.265 32.065 13.134 33.176 13.7427L29.2783 29.3407C27.83 29.3517 26.4843 29.7898 25.3495 30.5268L13.7812 19.9228C14.3293 18.8962 14.6685 17.743 14.6685 16.5C14.6685 16.3772 14.6373 16.2617 14.6318 16.1407L30.459 11.1943Z" fill="#836EF7"/>
</svg>
